<svg fill="none" height="24" viewBox="0 0 24 24" width="24" xmlns="http://www.w3.org/2000/svg"><g fill="#ffff"><path d="m12.0009 14.1699c-2.13004 0-3.87004-1.73-3.87004-3.87 0-2.13996 1.74-3.85996 3.87004-3.85996 2.13 0 3.87 1.73 3.87 3.86996 0 2.14-1.74 3.86-3.87 3.86zm0-6.22996c-1.3 0-2.37004 1.06-2.37004 2.36996 0 1.31 1.06004 2.37 2.37004 2.37s2.37-1.06 2.37-2.37c0-1.30996-1.07-2.36996-2.37-2.36996z"/><path d="m11.9997 22.76c-1.48 0-2.97001-.56-4.13001-1.67-2.95-2.84-6.21-7.37-4.98-12.76 1.11-4.89 5.38-7.08 9.11001-7.08h.01c3.73 0 8 2.19 9.11 7.09 1.22 5.39-2.04 9.91-4.99 12.75-1.16 1.11-2.65 1.67-4.13 1.67zm0-20.01c-2.91001 0-6.65001 1.55-7.64001 5.91-1.08 4.71 1.88 8.77 4.56 11.34 1.73001 1.67 4.44001 1.67 6.17001 0 2.67-2.57 5.63-6.63 4.57-11.34-1-4.36-4.75-5.91-7.66-5.91z"/></g></svg>