<svg enable-background="new 0 0 30 30" viewBox="0 0 30 30" xmlns="http://www.w3.org/2000/svg"><path fill="#ffff" d="m2.75 15.36c0-.25.1-.48.3-.69.22-.19.46-.29.7-.29h2.33c.27 0 .49.1.67.29s.27.43.27.69c0 .29-.09.53-.27.72s-.41.29-.67.29h-2.33c-.27 0-.5-.1-.7-.3-.2-.21-.3-.45-.3-.71zm3.33-7.98c0-.27.09-.5.26-.68.23-.2.46-.3.71-.3.26 0 .49.1.68.29l1.64 1.65c.19.22.28.45.28.69 0 .28-.09.52-.27.7s-.4.28-.66.28c-.24 0-.48-.1-.7-.29l-1.68-1.61c-.17-.21-.26-.46-.26-.73zm2 13.5c0-.28.1-.51.29-.68.18-.17.4-.26.68-.26h2.63l3.11-2.92c.1-.08.21-.08.34 0l3.16 2.92h2.77c.27 0 .5.09.69.28.19.18.29.41.29.67 0 .27-.1.5-.29.69s-.42.29-.69.29h-3.38c-.1 0-.2-.02-.29-.07l-2.41-2.27-2.39 2.27c-.08.05-.17.07-.28.07h-3.26c-.27 0-.5-.1-.69-.29-.19-.2-.28-.43-.28-.7zm.92-5.52c0 .97.21 1.85.62 2.64.02.12.11.18.25.18h1.88c.07 0 .12-.03.15-.08.03-.06.02-.12-.02-.19-.64-.77-.96-1.62-.96-2.55 0-1.12.4-2.08 1.2-2.87s1.76-1.18 2.89-1.18c1.12 0 2.07.39 2.86 1.18s1.19 1.74 1.19 2.87c0 .94-.32 1.79-.95 2.55-.04.07-.05.13-.03.19s.07.08.15.08h1.9c.13 0 .21-.06.23-.18.44-.77.64-1.65.64-2.64 0-.81-.16-1.59-.48-2.32-.32-.74-.75-1.37-1.28-1.91-.53-.53-1.17-.96-1.91-1.28s-1.51-.47-2.32-.47-1.59.16-2.33.47c-.74.32-1.38.74-1.92 1.28-.54.53-.97 1.17-1.29 1.91-.31.73-.47 1.5-.47 2.32zm5.03-8.96v-2.3c0-.29.09-.52.28-.71s.43-.28.71-.28.51.09.7.28.28.44.28.72v2.3c0 .29-.09.52-.28.71-.18.18-.42.28-.7.28-.29 0-.52-.09-.71-.28s-.28-.43-.28-.72zm6.35 2.64c0-.25.09-.48.27-.69l1.62-1.65c.19-.19.43-.29.7-.29s.51.1.69.29c.19.19.28.42.28.69 0 .29-.09.53-.26.73l-1.68 1.61c-.21.19-.45.29-.7.29-.27 0-.49-.09-.66-.28s-.26-.42-.26-.7zm2.61 6.32c0-.27.09-.5.27-.69s.4-.29.66-.29h2.35c.27 0 .5.1.69.29s.29.43.29.69c0 .28-.1.51-.29.71s-.42.3-.69.3h-2.35c-.27 0-.49-.1-.67-.29-.17-.2-.26-.44-.26-.72z"/></svg>