<svg fill="#ffff" enable-background="new 0 0 30 30" viewBox="0 0 30 30" xmlns="http://www.w3.org/2000/svg"><path d="m2.88 15.47c0-.28.1-.5.3-.68.17-.18.4-.26.68-.26h2.31c.27 0 .49.09.67.27.17.18.26.4.26.67 0 .28-.09.52-.27.71s-.4.29-.66.29h-2.3c-.27 0-.5-.1-.69-.3-.2-.2-.3-.43-.3-.7zm3.29-7.86c0-.28.08-.51.25-.68.2-.2.43-.3.7-.3.29 0 .51.1.68.3l1.62 1.63c.46.44.46.89 0 1.35-.19.19-.4.28-.65.28-.22 0-.44-.09-.68-.28l-1.66-1.62c-.17-.18-.26-.41-.26-.68zm1.97 13.28c0-.26.1-.49.3-.69.18-.18.41-.27.68-.27h3.22c.11 0 .2.02.28.08l2.35 2.22 2.39-2.23c.07-.05.17-.08.29-.08h3.3c.27 0 .5.09.69.28s.29.42.29.68c0 .27-.1.5-.29.69s-.42.29-.69.29h-2.68l-3.14 2.84c-.12.09-.23.09-.33 0l-3.08-2.84h-2.6c-.27 0-.5-.1-.69-.29-.19-.18-.29-.41-.29-.68zm.94-5.42c0 .99.19 1.87.58 2.62.06.11.15.16.27.16h1.87c.08 0 .13-.02.15-.07s-.01-.11-.07-.18c-.59-.74-.89-1.59-.89-2.53 0-1.1.39-2.04 1.18-2.81s1.74-1.16 2.85-1.16c1.1 0 2.04.39 2.83 1.16.78.78 1.18 1.71 1.18 2.8 0 .94-.3 1.79-.89 2.53-.07.07-.09.13-.07.18s.07.07.15.07h1.88c.13 0 .21-.05.24-.16.41-.78.62-1.66.62-2.62 0-.79-.16-1.56-.47-2.29s-.74-1.37-1.27-1.9-1.16-.95-1.89-1.27-1.5-.47-2.3-.47-1.57.16-2.3.47c-.73.32-1.36.74-1.89 1.27s-.95 1.16-1.27 1.9-.49 1.51-.49 2.3zm4.96-8.81v-2.33c0-.27.1-.5.29-.69s.42-.29.69-.29.5.1.69.29.29.42.29.69v2.32c0 .27-.1.5-.29.69s-.42.29-.69.29-.5-.1-.69-.29c-.2-.19-.29-.41-.29-.68zm6.27 2.58c0-.28.09-.51.26-.67l1.63-1.63c.16-.2.39-.3.68-.3.27 0 .5.1.68.29s.27.42.27.69c0 .28-.08.51-.25.68l-1.66 1.63c-.23.19-.46.28-.69.28-.26 0-.48-.09-.66-.28-.17-.19-.26-.42-.26-.69zm2.59 6.23c0-.27.09-.49.26-.67s.4-.27.67-.27h2.32c.27 0 .5.09.69.27s.29.4.29.67-.1.5-.29.7-.42.3-.69.3h-2.32c-.26 0-.48-.1-.66-.29s-.27-.43-.27-.71z"/></svg>