<svg fill="none" height="24" viewBox="0 0 24 24" width="24" xmlns="http://www.w3.org/2000/svg"><g fill="#ffff"><path d="m18.5 22.75c-2.34 0-4.25-1.91-4.25-4.25v-.5c0-.41.34-.75.75-.75s.75.34.75.75v.5c0 1.52 1.23 2.75 2.75 2.75s2.75-1.23 2.75-2.75-1.23-2.75-2.75-2.75h-16.5c-.41 0-.75-.34-.75-.75s.34-.75.75-.75h16.5c2.34 0 4.25 1.91 4.25 4.25s-1.91 4.25-4.25 4.25z"/><path d="m18.5 12.75h-16.5c-.41 0-.75-.34-.75-.75s.34-.75.75-.75h16.5c1.52 0 2.75-1.23 2.75-2.75s-1.23-2.75-2.75-2.75-2.75 1.23-2.75 2.75v.5c0 .41-.34.75-.75.75s-.75-.34-.75-.75v-.5c0-2.34 1.91-4.25 4.25-4.25s4.25 1.91 4.25 4.25-1.91 4.25-4.25 4.25z"/><path d="m9.31 9.75109h-7.31c-.41 0-.75-.34-.75-.75s.34-.75.75-.75h7.31c1.07 0 1.94-.87 1.94-1.94s-.87-1.94-1.94-1.94-1.94.87-1.94 1.94v.38c0 .41-.34.75-.75.75s-.75-.33-.75-.75v-.38c0-1.9 1.54-3.44 3.44-3.44s3.44 1.54 3.44 3.44-1.54 3.44-3.44 3.44z"/></g></svg>