<svg height="32" viewBox="0 0 32 32" width="32" xmlns="http://www.w3.org/2000/svg"><path fill="#ffff" d="m26 12a3.8978 3.8978 0 0 1 -4-3.777 3.9017 3.9017 0 0 1 .6533-2.0639l2.5167-3.745a1.0381 1.0381 0 0 1 1.6592 0l2.4862 3.6959a3.9693 3.9693 0 0 1 .6846 2.113 3.8978 3.8978 0 0 1 -4 3.777zm0-7.2368-1.6562 2.4625a1.89 1.89 0 0 0 -.3438.9973 2.0139 2.0139 0 0 0 4 0 1.98 1.98 0 0 0 -.375-1.0466z"/><path fill="#ffff" d="m23.5 30h-15a6.4962 6.4962 0 0 1 -1.3-12.8619 8.9938 8.9938 0 0 1 17.6006 0 6.4964 6.4964 0 0 1 -1.3006 12.8619zm-7.5-18a7 7 0 0 0 -6.9414 6.1452l-.0991.8122-.8155.064a4.4962 4.4962 0 0 0 .356 8.9786h15a4.4962 4.4962 0 0 0 .3564-8.9786l-.8154-.064-.0986-.8122a7.0022 7.0022 0 0 0 -6.9424-6.1452z"/><path d="m0 0h32v32h-32z" fill="none"/></svg>